<svg xmlns="http://www.w3.org/2000/svg" xmlns:xlink="http://www.w3.org/1999/xlink" width="960" zoomAndPan="magnify" viewBox="0 0 720 72" height="96" preserveAspectRatio="xMidYMid meet" version="1.0"><defs><clipPath id="87dbec3250"><path d="M 16.265625 13.515625 L 49.648438 13.515625 L 49.648438 58.34375 L 16.265625 58.34375 Z M 16.265625 13.515625 " clip-rule="nonzero"/></clipPath><clipPath id="f4d8171696"><path d="M 53.503906 13.515625 L 94.992188 13.515625 L 94.992188 58.34375 L 53.503906 58.34375 Z M 53.503906 13.515625 " clip-rule="nonzero"/></clipPath><clipPath id="8ccf29566a"><path d="M 98.632812 13.515625 L 132.96875 13.515625 L 132.96875 58.34375 L 98.632812 58.34375 Z M 98.632812 13.515625 " clip-rule="nonzero"/></clipPath><clipPath id="eb080baeed"><path d="M 174.613281 13.515625 L 213.714844 13.515625 L 213.714844 58.34375 L 174.613281 58.34375 Z M 174.613281 13.515625 " clip-rule="nonzero"/></clipPath><clipPath id="1453da7663"><path d="M 217.210938 13.515625 L 250.59375 13.515625 L 250.59375 58.34375 L 217.210938 58.34375 Z M 217.210938 13.515625 " clip-rule="nonzero"/></clipPath><clipPath id="2f123d6360"><path d="M 338 13.515625 L 371 13.515625 L 371 58.34375 L 338 58.34375 Z M 338 13.515625 " clip-rule="nonzero"/></clipPath><clipPath id="21c3841d65"><path d="M 337.925781 13.515625 L 371.304688 13.515625 L 371.304688 58.34375 L 337.925781 58.34375 Z M 337.925781 13.515625 " clip-rule="nonzero"/></clipPath><clipPath id="3311e040b4"><path d="M 254.191406 13.515625 L 292 13.515625 L 292 58.34375 L 254.191406 58.34375 Z M 254.191406 13.515625 " clip-rule="nonzero"/></clipPath><clipPath id="42ec1bde79"><path d="M 254.191406 13.515625 L 292.339844 13.515625 L 292.339844 58.34375 L 254.191406 58.34375 Z M 254.191406 13.515625 " clip-rule="nonzero"/></clipPath><clipPath id="9c52998638"><path d="M 136.625 13.515625 L 170.957031 13.515625 L 170.957031 58.34375 L 136.625 58.34375 Z M 136.625 13.515625 " clip-rule="nonzero"/></clipPath><clipPath id="474d6d7dac"><path d="M 296 13.515625 L 334 13.515625 L 334 58.34375 L 296 58.34375 Z M 296 13.515625 " clip-rule="nonzero"/></clipPath><clipPath id="2050a07605"><path d="M 296 13.515625 L 334.152344 13.515625 L 334.152344 58.34375 L 296 58.34375 Z M 296 13.515625 " clip-rule="nonzero"/></clipPath><clipPath id="02ca1e5ec1"><path d="M 429 15.375 L 460.335938 15.375 L 460.335938 56.6875 L 429 56.6875 Z M 429 15.375 " clip-rule="nonzero"/></clipPath><clipPath id="1b7f6d89dc"><path d="M 428.835938 15.375 L 460.335938 15.375 L 460.335938 56.6875 L 428.835938 56.6875 Z M 428.835938 15.375 " clip-rule="nonzero"/></clipPath><clipPath id="d6e59a0067"><path d="M 393.566406 15.375 L 424.246094 15.375 L 424.246094 56.6875 L 393.566406 56.6875 Z M 393.566406 15.375 " clip-rule="nonzero"/></clipPath><clipPath id="3c98d758d9"><path d="M 652.042969 15.375 L 690 15.375 L 690 56.6875 L 652.042969 56.6875 Z M 652.042969 15.375 " clip-rule="nonzero"/></clipPath><clipPath id="23f5b85d4e"><path d="M 652.042969 15.375 L 690.085938 15.375 L 690.085938 56.6875 L 652.042969 56.6875 Z M 652.042969 15.375 " clip-rule="nonzero"/></clipPath><clipPath id="c543633e5a"><path d="M 543.457031 15.375 L 575.773438 15.375 L 575.773438 56.6875 L 543.457031 56.6875 Z M 543.457031 15.375 " clip-rule="nonzero"/></clipPath><clipPath id="eaad1a126d"><path d="M 580.132812 15.375 L 611.628906 15.375 L 611.628906 56.6875 L 580.132812 56.6875 Z M 580.132812 15.375 " clip-rule="nonzero"/></clipPath><clipPath id="de34f1219f"><path d="M 616.085938 15.375 L 647.585938 15.375 L 647.585938 56.6875 L 616.085938 56.6875 Z M 616.085938 15.375 " clip-rule="nonzero"/></clipPath><clipPath id="9043fa6989"><path d="M 465 15.375 L 496 15.375 L 496 56.6875 L 465 56.6875 Z M 465 15.375 " clip-rule="nonzero"/></clipPath><clipPath id="dc9b3e5fc2"><path d="M 464.792969 15.375 L 496.289062 15.375 L 496.289062 56.6875 L 464.792969 56.6875 Z M 464.792969 15.375 " clip-rule="nonzero"/></clipPath><clipPath id="edd1179e4e"><path d="M 500.746094 15.375 L 538.789062 15.375 L 538.789062 56.6875 L 500.746094 56.6875 Z M 500.746094 15.375 " clip-rule="nonzero"/></clipPath></defs><g clip-path="url(#87dbec3250)"><path stroke-linecap="butt" transform="matrix(0.253866, 0, 0, 0.253866, -1763.908631, -9.734993)" fill-opacity="1" fill="#ffd3e9" fill-rule="nonzero" stroke-linejoin="round" d="M 7013.621955 267.613823 L 7013.621955 228.361486 L 7024.115916 228.361486 L 7024.115916 132.115555 L 7013.621955 132.115555 L 7013.621955 92.601637 L 7082.617439 92.601637 L 7082.617439 132.115555 L 7072.123479 132.115555 L 7072.123479 228.361486 L 7103.620748 228.361486 L 7103.620748 217.852138 L 7143.119278 217.852138 L 7143.119278 267.613823 Z M 7138.872455 263.351613 L 7138.872455 222.36054 L 7107.867571 222.36054 L 7107.867571 232.608309 L 7067.615076 232.608309 L 7067.615076 127.853345 L 7078.370616 127.853345 L 7078.370616 96.863847 L 7017.868778 96.863847 L 7017.868778 127.853345 L 7028.362739 127.853345 L 7028.362739 232.362116 L 7018.11497 232.362116 L 7018.11497 263.351613 Z M 7023.377338 257.85844 L 7023.377338 237.855289 L 7033.625106 237.855289 L 7033.625106 122.360172 L 7023.377338 122.360172 L 7023.377338 102.35702 L 7073.123636 102.35702 L 7073.123636 122.360172 L 7062.614288 122.360172 L 7062.614288 237.855289 L 7113.114551 237.855289 L 7113.114551 227.361328 L 7133.363895 227.361328 L 7133.363895 257.85844 Z M 7023.377338 257.85844 " stroke="#000000" stroke-width="2.08" stroke-opacity="1" stroke-miterlimit="2"/></g><g clip-path="url(#f4d8171696)"><path stroke-linecap="butt" transform="matrix(0.253646, 0, 0, 0.253646, -11.750679, -26.724954)" fill-opacity="1" fill="#ffd3e9" fill-rule="nonzero" stroke-linejoin="round" d="M 258.343979 334.813225 L 258.343979 295.573068 L 268.847035 295.573068 L 300.849016 199.320721 L 293.087226 199.320721 L 293.087226 159.818757 L 386.090095 159.818757 L 386.090095 199.320721 L 377.342681 199.320721 L 409.344662 295.573068 L 419.585912 295.573068 L 419.585912 334.813225 L 352.594278 334.813225 L 352.594278 295.573068 L 358.585024 295.573068 L 355.843757 287.318467 L 322.34794 287.318467 L 319.344867 295.573068 L 325.335613 295.573068 L 325.335613 334.813225 Z M 321.085109 330.562722 L 321.085109 299.561766 L 314.586151 299.561766 L 318.590248 283.314369 L 359.586048 283.314369 L 363.34374 299.561766 L 356.844781 299.561766 L 356.844781 330.562722 L 415.597214 330.562722 L 415.597214 299.561766 L 405.58697 299.561766 L 372.091153 195.070217 L 381.839591 195.070217 L 381.839591 164.069261 L 297.33773 164.069261 L 297.33773 195.070217 L 305.838737 195.070217 L 272.34292 299.561766 L 262.594483 299.561766 L 262.594483 330.562722 Z M 268.092417 325.064788 L 268.092417 305.0751 L 275.5924 305.0751 L 313.846933 189.572283 L 302.835664 189.572283 L 302.835664 169.567195 L 376.588063 169.567195 L 376.588063 189.572283 L 364.344764 189.572283 L 402.599297 305.0751 L 410.09928 305.0751 L 410.09928 325.064788 L 362.342716 325.064788 L 362.342716 305.0751 L 371.844747 305.0751 L 362.835528 277.816435 L 315.094363 277.816435 L 306.085143 305.0751 L 315.587175 305.0751 L 315.587175 325.064788 Z M 357.845806 263.324682 L 339.088148 206.312491 L 319.837679 263.324682 Z M 328.338686 258.31956 L 339.088148 223.560912 L 349.591205 258.31956 Z M 344.847889 253.82265 L 339.088148 237.067041 L 333.343808 253.82265 Z M 344.847889 253.82265 " stroke="#000000" stroke-width="2.08" stroke-opacity="1" stroke-miterlimit="2"/></g><g clip-path="url(#8ccf29566a)"><path stroke-linecap="butt" transform="matrix(0.253755, 0, 0, 0.253755, -2833.686434, -30.614034)" fill-opacity="1" fill="#ffd3e9" fill-rule="nonzero" stroke-linejoin="round" d="M 11556.698398 321.948246 L 11556.698398 288.436011 L 11604.696169 288.436011 L 11604.696169 304.938131 L 11610.699739 310.695401 L 11635.69922 310.695401 L 11641.394914 305.184431 L 11641.394914 287.94341 L 11635.899339 282.694135 L 11584.699664 282.694135 L 11556.698398 254.69287 L 11556.698398 202.939019 L 11584.699664 174.937754 L 11661.699295 174.937754 L 11689.700561 202.939019 L 11689.700561 237.436455 L 11641.394914 237.436455 L 11641.394914 219.93374 L 11635.899339 214.438164 L 11609.899263 214.438164 L 11604.696169 219.93374 L 11604.696169 237.698149 L 11610.207138 243.193724 L 11661.699295 243.193724 L 11689.700561 271.19499 L 11689.700561 321.948246 L 11661.699295 349.934117 L 11584.699664 349.934117 Z M 11585.900378 345.685437 L 11660.406219 345.685437 L 11685.405699 320.947651 L 11685.405699 271.933891 L 11660.6987 247.442405 L 11609.206544 247.442405 L 11600.693789 238.68335 L 11600.693789 218.948539 L 11609.206544 210.189484 L 11636.899934 210.189484 L 11645.705169 218.948539 L 11645.705169 233.187775 L 11685.405699 233.187775 L 11685.405699 203.939614 L 11660.6987 179.186434 L 11585.700259 179.186434 L 11560.900897 203.939614 L 11560.900897 253.692275 L 11585.700259 278.445455 L 11636.899934 278.445455 L 11645.705169 286.942815 L 11645.705169 305.938726 L 11636.699815 314.697781 L 11609.406663 314.697781 L 11600.693789 305.938726 L 11600.693789 292.684691 L 11560.900897 292.684691 L 11560.900897 320.947651 Z M 11566.396472 317.191571 L 11566.396472 297.933966 L 11595.198214 297.933966 L 11595.198214 309.448505 L 11605.896883 320.193356 L 11640.394319 320.193356 L 11651.200745 309.186811 L 11651.200745 284.187331 L 11640.1942 272.934486 L 11589.702638 272.934486 L 11566.396472 249.689895 L 11566.396472 207.695694 L 11589.394763 184.697403 L 11656.896439 184.697403 L 11680.202605 208.188294 L 11680.202605 227.9385 L 11651.200745 227.9385 L 11651.200745 215.946754 L 11640.1942 204.693909 L 11605.896883 204.693909 L 11595.198214 215.438759 L 11595.198214 241.946829 L 11605.896883 252.69168 L 11656.896439 252.69168 L 11680.202605 276.197965 L 11680.202605 317.191571 L 11657.404434 340.189862 L 11589.194644 340.189862 Z M 11566.396472 317.191571 " stroke="#000000" stroke-width="2.08" stroke-opacity="1" stroke-miterlimit="2"/></g><g clip-path="url(#eb080baeed)"><path stroke-linecap="butt" transform="matrix(0.253715, 0, 0, 0.253715, -931.123785, -14.135629)" fill-opacity="1" fill="#ffd3e9" fill-rule="nonzero" stroke-linejoin="round" d="M 4359.258609 285.07166 L 4359.258609 245.826757 L 4369.758815 245.826757 L 4369.758815 149.569743 L 4359.258609 149.569743 L 4359.258609 110.078502 L 4428.264358 110.078502 L 4428.264358 149.569743 L 4417.764152 149.569743 L 4417.764152 173.572412 L 4452.005291 173.572412 L 4452.005291 149.569743 L 4441.258747 149.569743 L 4441.258747 110.078502 L 4510.510834 110.078502 L 4510.510834 149.569743 L 4500.256968 149.569743 L 4500.256968 245.826757 L 4510.510834 245.826757 L 4510.510834 285.07166 L 4441.258747 285.07166 L 4441.258747 245.826757 L 4452.005291 245.826757 L 4452.005291 216.573986 L 4417.764152 216.573986 L 4417.764152 245.826757 L 4428.264358 245.826757 L 4428.264358 285.07166 Z M 4424.015008 280.82231 L 4424.015008 249.814372 L 4413.514802 249.814372 L 4413.514802 212.324636 L 4456.254641 212.324636 L 4456.254641 249.814372 L 4445.754436 249.814372 L 4445.754436 280.82231 L 4506.507823 280.82231 L 4506.507823 249.814372 L 4495.761279 249.814372 L 4495.761279 145.320393 L 4506.507823 145.320393 L 4506.507823 114.327852 L 4445.754436 114.327852 L 4445.754436 145.320393 L 4456.254641 145.320393 L 4456.254641 177.821762 L 4413.514802 177.821762 L 4413.514802 145.320393 L 4424.015008 145.320393 L 4424.015008 114.327852 L 4363.507959 114.327852 L 4363.507959 145.320393 L 4373.761825 145.320393 L 4373.761825 249.814372 L 4363.507959 249.814372 L 4363.507959 280.82231 Z M 4369.004401 275.325868 L 4369.004401 255.32621 L 4379.258267 255.32621 L 4379.258267 139.823951 L 4369.004401 139.823951 L 4369.004401 119.824293 L 4418.764905 119.824293 L 4418.764905 139.823951 L 4408.2647 139.823951 L 4408.2647 183.071865 L 4461.504744 183.071865 L 4461.504744 139.823951 L 4451.004538 139.823951 L 4451.004538 119.824293 L 4501.011381 119.824293 L 4501.011381 139.823951 L 4490.511176 139.823951 L 4490.511176 255.32621 L 4501.011381 255.32621 L 4501.011381 275.325868 L 4451.004538 275.325868 L 4451.004538 255.32621 L 4461.504744 255.32621 L 4461.504744 206.828194 L 4408.2647 206.828194 L 4408.2647 255.32621 L 4418.764905 255.32621 L 4418.764905 275.325868 Z M 4369.004401 275.325868 " stroke="#000000" stroke-width="2.08" stroke-opacity="1" stroke-miterlimit="2"/></g><g clip-path="url(#1453da7663)"><path stroke-linecap="butt" transform="matrix(0.253866, 0, 0, 0.253866, -454.055141, -19.536003)" fill-opacity="1" fill="#ffd3e9" fill-rule="nonzero" stroke-linejoin="round" d="M 2645.403144 306.282354 L 2645.403144 267.030016 L 2655.912492 267.030016 L 2655.912492 170.784085 L 2645.403144 170.784085 L 2645.403144 131.285555 L 2773.915697 131.285555 L 2773.915697 177.785188 L 2734.663359 177.785188 L 2734.663359 170.784085 L 2703.904668 170.784085 L 2703.904668 199.034689 L 2710.90577 199.034689 L 2710.90577 192.279779 L 2750.404301 192.279779 L 2750.404301 245.272743 L 2710.90577 245.272743 L 2710.90577 238.53322 L 2703.904668 238.53322 L 2703.904668 267.030016 L 2734.663359 267.030016 L 2734.663359 259.782721 L 2773.915697 259.782721 L 2773.915697 306.282354 Z M 2769.653487 302.035531 L 2769.653487 264.029544 L 2738.66399 264.029544 L 2738.66399 271.030647 L 2699.657845 271.030647 L 2699.657845 234.024817 L 2715.152593 234.024817 L 2715.152593 241.02592 L 2746.157478 241.02592 L 2746.157478 196.526602 L 2715.152593 196.526602 L 2715.152593 203.527705 L 2699.657845 203.527705 L 2699.657845 166.521875 L 2738.66399 166.521875 L 2738.66399 173.522978 L 2769.653487 173.522978 L 2769.653487 135.532378 L 2649.665354 135.532378 L 2649.665354 166.521875 L 2659.913122 166.521875 L 2659.913122 271.030647 L 2649.665354 271.030647 L 2649.665354 302.035531 Z M 2655.158527 296.526971 L 2655.158527 276.52382 L 2665.406295 276.52382 L 2665.406295 161.028702 L 2655.158527 161.028702 L 2655.158527 141.025551 L 2764.406506 141.025551 L 2764.406506 168.029805 L 2744.157163 168.029805 L 2744.157163 161.028702 L 2694.410864 161.028702 L 2694.410864 208.774685 L 2720.661153 208.774685 L 2720.661153 201.773583 L 2740.664305 201.773583 L 2740.664305 235.77894 L 2720.661153 235.77894 L 2720.661153 228.777837 L 2694.410864 228.777837 L 2694.410864 276.52382 L 2744.157163 276.52382 L 2744.157163 269.522717 L 2764.406506 269.522717 L 2764.406506 296.526971 Z M 2655.158527 296.526971 " stroke="#000000" stroke-width="2.08" stroke-opacity="1" stroke-miterlimit="2"/></g><g clip-path="url(#2f123d6360)"><path fill="#ffd3e9" d="M 338.238281 58.21875 L 338.238281 48.253906 L 340.902344 48.253906 L 340.902344 23.820312 L 338.238281 23.820312 L 338.238281 13.792969 L 370.859375 13.792969 L 370.859375 25.597656 L 360.894531 25.597656 L 360.894531 23.820312 L 353.089844 23.820312 L 353.089844 30.992188 L 354.867188 30.992188 L 354.867188 29.277344 L 364.894531 29.277344 L 364.894531 42.730469 L 354.867188 42.730469 L 354.867188 41.019531 L 353.089844 41.019531 L 353.089844 48.253906 L 360.894531 48.253906 L 360.894531 46.414062 L 370.859375 46.414062 L 370.859375 58.21875 Z M 369.78125 57.140625 L 369.78125 47.492188 L 361.910156 47.492188 L 361.910156 49.269531 L 352.011719 49.269531 L 352.011719 39.875 L 355.945312 39.875 L 355.945312 41.652344 L 363.816406 41.652344 L 363.816406 30.355469 L 355.945312 30.355469 L 355.945312 32.132812 L 352.011719 32.132812 L 352.011719 22.738281 L 361.910156 22.738281 L 361.910156 24.515625 L 369.78125 24.515625 L 369.78125 14.871094 L 339.316406 14.871094 L 339.316406 22.738281 L 341.917969 22.738281 L 341.917969 49.269531 L 339.316406 49.269531 L 339.316406 57.140625 Z M 340.714844 55.742188 L 340.714844 50.664062 L 343.316406 50.664062 L 343.316406 21.34375 L 340.714844 21.34375 L 340.714844 16.265625 L 368.449219 16.265625 L 368.449219 23.121094 L 363.308594 23.121094 L 363.308594 21.34375 L 350.679688 21.34375 L 350.679688 33.464844 L 357.34375 33.464844 L 357.34375 31.6875 L 362.417969 31.6875 L 362.417969 40.320312 L 357.34375 40.320312 L 357.34375 38.542969 L 350.679688 38.542969 L 350.679688 50.664062 L 363.308594 50.664062 L 363.308594 48.886719 L 368.449219 48.886719 L 368.449219 55.742188 Z M 340.714844 55.742188 " fill-opacity="1" fill-rule="nonzero"/></g><g clip-path="url(#21c3841d65)"><path stroke-linecap="butt" transform="matrix(0.253866, 0, 0, 0.253866, -333.341677, -19.536003)" fill="none" stroke-linejoin="round" d="M 2645.408577 306.282354 L 2645.408577 267.030016 L 2655.902537 267.030016 L 2655.902537 170.784085 L 2645.408577 170.784085 L 2645.408577 131.285555 L 2773.905742 131.285555 L 2773.905742 177.785188 L 2734.653405 177.785188 L 2734.653405 170.784085 L 2703.9101 170.784085 L 2703.9101 199.034689 L 2710.911203 199.034689 L 2710.911203 192.279779 L 2750.409733 192.279779 L 2750.409733 245.272743 L 2710.911203 245.272743 L 2710.911203 238.53322 L 2703.9101 238.53322 L 2703.9101 267.030016 L 2734.653405 267.030016 L 2734.653405 259.782721 L 2773.905742 259.782721 L 2773.905742 306.282354 Z M 2769.65892 302.035531 L 2769.65892 264.029544 L 2738.654035 264.029544 L 2738.654035 271.030647 L 2699.663277 271.030647 L 2699.663277 234.024817 L 2715.158026 234.024817 L 2715.158026 241.02592 L 2746.16291 241.02592 L 2746.16291 196.526602 L 2715.158026 196.526602 L 2715.158026 203.527705 L 2699.663277 203.527705 L 2699.663277 166.521875 L 2738.654035 166.521875 L 2738.654035 173.522978 L 2769.65892 173.522978 L 2769.65892 135.532378 L 2649.655399 135.532378 L 2649.655399 166.521875 L 2659.903168 166.521875 L 2659.903168 271.030647 L 2649.655399 271.030647 L 2649.655399 302.035531 Z M 2655.16396 296.526971 L 2655.16396 276.52382 L 2665.411728 276.52382 L 2665.411728 161.028702 L 2655.16396 161.028702 L 2655.16396 141.025551 L 2764.411939 141.025551 L 2764.411939 168.029805 L 2744.162595 168.029805 L 2744.162595 161.028702 L 2694.416297 161.028702 L 2694.416297 208.774685 L 2720.666586 208.774685 L 2720.666586 201.773583 L 2740.65435 201.773583 L 2740.65435 235.77894 L 2720.666586 235.77894 L 2720.666586 228.777837 L 2694.416297 228.777837 L 2694.416297 276.52382 L 2744.162595 276.52382 L 2744.162595 269.522717 L 2764.411939 269.522717 L 2764.411939 296.526971 Z M 2655.16396 296.526971 " stroke="#000000" stroke-width="2.08" stroke-opacity="1" stroke-miterlimit="2"/></g><g clip-path="url(#3311e040b4)"><path fill="#ffd3e9" d="M 254.480469 26.402344 L 254.480469 13.773438 L 291.976562 13.773438 L 291.976562 26.402344 L 281.949219 26.402344 L 281.949219 23.800781 L 279.359375 23.800781 L 279.359375 48.234375 L 281.949219 48.234375 L 281.949219 58.199219 L 264.433594 58.199219 L 264.433594 48.234375 L 267.097656 48.234375 L 267.097656 23.800781 L 264.433594 23.800781 L 264.433594 26.402344 Z M 263.367188 25.386719 L 263.367188 22.722656 L 268.191406 22.722656 L 268.191406 49.25 L 265.523438 49.25 L 265.523438 57.121094 L 280.933594 57.121094 L 280.933594 49.25 L 278.269531 49.25 L 278.269531 22.722656 L 283.089844 22.722656 L 283.089844 25.386719 L 290.910156 25.386719 L 290.910156 14.851562 L 255.546875 14.851562 L 255.546875 25.386719 Z M 256.945312 23.992188 L 256.945312 16.246094 L 289.566406 16.246094 L 289.566406 23.992188 L 284.4375 23.992188 L 284.4375 21.324219 L 276.949219 21.324219 L 276.949219 50.644531 L 279.539062 50.644531 L 279.539062 55.722656 L 266.921875 55.722656 L 266.921875 50.644531 L 269.585938 50.644531 L 269.585938 21.324219 L 261.96875 21.324219 L 261.96875 23.992188 Z M 256.945312 23.992188 " fill-opacity="1" fill-rule="nonzero"/></g><g clip-path="url(#42ec1bde79)"><path stroke-linecap="butt" transform="matrix(0.253866, 0, 0, 0.253866, -2818.011435, -23.671996)" fill="none" stroke-linejoin="round" d="M 12102.797796 197.246936 L 12102.797796 147.500638 L 12250.497987 147.500638 L 12250.497987 197.246936 L 12210.999457 197.246936 L 12210.999457 186.999168 L 12200.79785 186.999168 L 12200.79785 283.245099 L 12210.999457 283.245099 L 12210.999457 322.497437 L 12142.003972 322.497437 L 12142.003972 283.245099 L 12152.497933 283.245099 L 12152.497933 186.999168 L 12142.003972 186.999168 L 12142.003972 197.246936 Z M 12137.803311 193.246306 L 12137.803311 182.752345 L 12156.806304 182.752345 L 12156.806304 287.245729 L 12146.296956 287.245729 L 12146.296956 318.250614 L 12206.998827 318.250614 L 12206.998827 287.245729 L 12196.504866 287.245729 L 12196.504866 182.752345 L 12215.492472 182.752345 L 12215.492472 193.246306 L 12246.297325 193.246306 L 12246.297325 151.747461 L 12106.998458 151.747461 L 12106.998458 193.246306 Z M 12112.507018 187.753133 L 12112.507018 157.240634 L 12241.004184 157.240634 L 12241.004184 187.753133 L 12220.801001 187.753133 L 12220.801001 177.243785 L 12191.304046 177.243785 L 12191.304046 292.738902 L 12201.505654 292.738902 L 12201.505654 312.742054 L 12151.805516 312.742054 L 12151.805516 292.738902 L 12162.299477 292.738902 L 12162.299477 177.243785 L 12132.29475 177.243785 L 12132.29475 187.753133 Z M 12112.507018 187.753133 " stroke="#000000" stroke-width="2.08" stroke-opacity="1" stroke-miterlimit="2"/></g><g clip-path="url(#9c52998638)"><path stroke-linecap="butt" transform="matrix(0.253755, 0, 0, 0.253755, -2795.696836, -30.614034)" fill-opacity="1" fill="#ffd3e9" fill-rule="nonzero" stroke-linejoin="round" d="M 11556.693207 321.948246 L 11556.693207 288.436011 L 11604.706372 288.436011 L 11604.706372 304.938131 L 11610.694548 310.695401 L 11635.694029 310.695401 L 11641.405117 305.184431 L 11641.405117 287.94341 L 11635.894148 282.694135 L 11584.694473 282.694135 L 11556.693207 254.69287 L 11556.693207 202.939019 L 11584.694473 174.937754 L 11661.694104 174.937754 L 11689.69537 202.939019 L 11689.69537 237.436455 L 11641.405117 237.436455 L 11641.405117 219.93374 L 11635.894148 214.438164 L 11609.894072 214.438164 L 11604.706372 219.93374 L 11604.706372 237.698149 L 11610.201948 243.193724 L 11661.694104 243.193724 L 11689.69537 271.19499 L 11689.69537 321.948246 L 11661.694104 349.934117 L 11584.694473 349.934117 Z M 11585.895187 345.685437 L 11660.401028 345.685437 L 11685.400508 320.947651 L 11685.400508 271.933891 L 11660.693509 247.442405 L 11609.201353 247.442405 L 11600.703992 238.68335 L 11600.703992 218.948539 L 11609.201353 210.189484 L 11636.894743 210.189484 L 11645.699979 218.948539 L 11645.699979 233.187775 L 11685.400508 233.187775 L 11685.400508 203.939614 L 11660.693509 179.186434 L 11585.695068 179.186434 L 11560.895706 203.939614 L 11560.895706 253.692275 L 11585.695068 278.445455 L 11636.894743 278.445455 L 11645.699979 286.942815 L 11645.699979 305.938726 L 11636.694624 314.697781 L 11609.401472 314.697781 L 11600.703992 305.938726 L 11600.703992 292.684691 L 11560.895706 292.684691 L 11560.895706 320.947651 Z M 11566.406676 317.191571 L 11566.406676 297.933966 L 11595.193023 297.933966 L 11595.193023 309.448505 L 11605.907086 320.193356 L 11640.404522 320.193356 L 11651.195554 309.186811 L 11651.195554 284.187331 L 11640.204403 272.934486 L 11589.697448 272.934486 L 11566.406676 249.689895 L 11566.406676 207.695694 L 11589.404966 184.697403 L 11656.906642 184.697403 L 11680.197415 208.188294 L 11680.197415 227.9385 L 11651.195554 227.9385 L 11651.195554 215.946754 L 11640.204403 204.693909 L 11605.907086 204.693909 L 11595.193023 215.438759 L 11595.193023 241.946829 L 11605.907086 252.69168 L 11656.906642 252.69168 L 11680.197415 276.197965 L 11680.197415 317.191571 L 11657.399243 340.189862 L 11589.204847 340.189862 Z M 11566.406676 317.191571 " stroke="#000000" stroke-width="2.08" stroke-opacity="1" stroke-miterlimit="2"/></g><g clip-path="url(#474d6d7dac)"><path fill="#ffd3e9" d="M 296.292969 26.402344 L 296.292969 13.773438 L 333.789062 13.773438 L 333.789062 26.402344 L 323.761719 26.402344 L 323.761719 23.800781 L 321.171875 23.800781 L 321.171875 48.234375 L 323.761719 48.234375 L 323.761719 58.199219 L 306.246094 58.199219 L 306.246094 48.234375 L 308.910156 48.234375 L 308.910156 23.800781 L 306.246094 23.800781 L 306.246094 26.402344 Z M 305.179688 25.386719 L 305.179688 22.722656 L 310 22.722656 L 310 49.25 L 307.335938 49.25 L 307.335938 57.121094 L 322.746094 57.121094 L 322.746094 49.25 L 320.082031 49.25 L 320.082031 22.722656 L 324.902344 22.722656 L 324.902344 25.386719 L 332.722656 25.386719 L 332.722656 14.851562 L 297.359375 14.851562 L 297.359375 25.386719 Z M 298.753906 23.992188 L 298.753906 16.246094 L 331.378906 16.246094 L 331.378906 23.992188 L 326.25 23.992188 L 326.25 21.324219 L 318.761719 21.324219 L 318.761719 50.644531 L 321.347656 50.644531 L 321.347656 55.722656 L 308.730469 55.722656 L 308.730469 50.644531 L 311.398438 50.644531 L 311.398438 21.324219 L 303.78125 21.324219 L 303.78125 23.992188 Z M 298.753906 23.992188 " fill-opacity="1" fill-rule="nonzero"/></g><g clip-path="url(#2050a07605)"><path stroke-linecap="butt" transform="matrix(0.253866, 0, 0, 0.253866, -2776.199644, -23.671996)" fill="none" stroke-linejoin="round" d="M 12102.800592 197.246936 L 12102.800592 147.500638 L 12250.500783 147.500638 L 12250.500783 197.246936 L 12211.002253 197.246936 L 12211.002253 186.999168 L 12200.800645 186.999168 L 12200.800645 283.245099 L 12211.002253 283.245099 L 12211.002253 322.497437 L 12142.006768 322.497437 L 12142.006768 283.245099 L 12152.500729 283.245099 L 12152.500729 186.999168 L 12142.006768 186.999168 L 12142.006768 197.246936 Z M 12137.806106 193.246306 L 12137.806106 182.752345 L 12156.793713 182.752345 L 12156.793713 287.245729 L 12146.299752 287.245729 L 12146.299752 318.250614 L 12207.001622 318.250614 L 12207.001622 287.245729 L 12196.507661 287.245729 L 12196.507661 182.752345 L 12215.495268 182.752345 L 12215.495268 193.246306 L 12246.300121 193.246306 L 12246.300121 151.747461 L 12107.001253 151.747461 L 12107.001253 193.246306 Z M 12112.494426 187.753133 L 12112.494426 157.240634 L 12241.006979 157.240634 L 12241.006979 187.753133 L 12220.803797 187.753133 L 12220.803797 177.243785 L 12191.306842 177.243785 L 12191.306842 292.738902 L 12201.493062 292.738902 L 12201.493062 312.742054 L 12151.792925 312.742054 L 12151.792925 292.738902 L 12162.302273 292.738902 L 12162.302273 177.243785 L 12132.297546 177.243785 L 12132.297546 187.753133 Z M 12112.494426 187.753133 " stroke="#000000" stroke-width="2.08" stroke-opacity="1" stroke-miterlimit="2"/></g><g clip-path="url(#02ca1e5ec1)"><path fill="#ffd3e9" d="M 429.070312 49.84375 L 429.070312 22.140625 L 435.589844 15.621094 L 453.515625 15.621094 L 460.035156 22.140625 L 460.035156 49.84375 L 453.515625 56.363281 L 435.589844 56.363281 Z M 435.9375 55.3125 L 453.222656 55.3125 L 459.042969 49.492188 L 459.042969 22.546875 L 453.105469 16.609375 L 435.9375 16.609375 L 430.117188 22.429688 L 430.117188 49.492188 Z M 431.339844 48.738281 L 431.339844 23.246094 L 436.695312 17.890625 L 452.46875 17.890625 L 457.820312 23.246094 L 457.820312 48.738281 L 452.46875 54.089844 L 436.695312 54.089844 Z M 440.535156 49.4375 L 448.566406 49.4375 L 451.070312 46.933594 L 451.070312 25.105469 L 448.507812 22.546875 L 440.535156 22.546875 L 438.03125 25.050781 L 438.03125 46.933594 Z M 439.253906 46.175781 L 439.253906 25.804688 L 441.292969 23.769531 L 447.8125 23.769531 L 449.847656 25.804688 L 449.847656 46.175781 L 447.8125 48.214844 L 441.292969 48.214844 Z M 441.582031 47.222656 L 447.519531 47.222656 L 448.800781 45.945312 L 448.800781 26.097656 L 447.519531 24.816406 L 441.523438 24.816406 L 440.246094 26.097656 L 440.246094 45.886719 Z M 441.582031 47.222656 " fill-opacity="1" fill-rule="nonzero"/></g><g clip-path="url(#1b7f6d89dc)"><path stroke-linecap="butt" transform="matrix(0.232808, 0, 0, 0.232808, -1633.926964, -7.101278)" fill="none" stroke-linejoin="round" d="M 8861.382012 244.601219 L 8861.382012 125.605438 L 8889.385954 97.601495 L 8966.384212 97.601495 L 8994.388154 125.605438 L 8994.388154 244.601219 L 8966.384212 272.605162 L 8889.385954 272.605162 Z M 8890.879274 268.091644 L 8965.125796 268.091644 L 8990.12632 243.09112 L 8990.12632 127.350441 L 8964.62243 101.846551 L 8890.879274 101.846551 L 8865.87875 126.847074 L 8865.87875 243.09112 Z M 8871.130538 239.852798 L 8871.130538 130.353859 L 8894.134376 107.350022 L 8961.887473 107.350022 L 8984.874532 130.353859 L 8984.874532 239.852798 L 8961.887473 262.839856 L 8894.134376 262.839856 Z M 8910.62801 242.856216 L 8945.125377 242.856216 L 8955.880636 232.100957 L 8955.880636 138.340604 L 8944.873694 127.350441 L 8910.62801 127.350441 L 8899.872751 138.105699 L 8899.872751 232.100957 Z M 8905.124539 228.845856 L 8905.124539 141.344022 L 8913.883112 132.602228 L 8941.887054 132.602228 L 8950.628848 141.344022 L 8950.628848 228.845856 L 8941.887054 237.604428 L 8913.883112 237.604428 Z M 8915.124748 233.342594 L 8940.628638 233.342594 L 8946.132109 227.855902 L 8946.132109 142.602438 L 8940.628638 137.098967 L 8914.873065 137.098967 L 8909.386373 142.602438 L 8909.386373 227.604219 Z M 8915.124748 233.342594 " stroke="#000000" stroke-width="2.08" stroke-opacity="1" stroke-miterlimit="2"/></g><g clip-path="url(#d6e59a0067)"><path stroke-linecap="butt" transform="matrix(0.232922, 0, 0, 0.232922, -1239.740228, -5.959848)" fill-opacity="1" fill="#ffd3e9" fill-rule="nonzero" stroke-linejoin="round" d="M 7013.620503 267.604925 L 7013.620503 228.361555 L 7024.118943 228.361555 L 7024.118943 132.114672 L 7013.620503 132.114672 L 7013.620503 92.60297 L 7082.615045 92.60297 L 7082.615045 132.114672 L 7072.116604 132.114672 L 7072.116604 228.361555 L 7103.611925 228.361555 L 7103.611925 217.863114 L 7143.123627 217.863114 L 7143.123627 267.604925 Z M 7138.863876 263.361946 L 7138.863876 222.357654 L 7107.871676 222.357654 L 7107.871676 232.604534 L 7067.622064 232.604534 L 7067.622064 127.854921 L 7078.372065 127.854921 L 7078.372065 96.862721 L 7017.863483 96.862721 L 7017.863483 127.854921 L 7028.361923 127.854921 L 7028.361923 232.352974 L 7018.115043 232.352974 L 7018.115043 263.361946 Z M 7023.364263 257.861165 L 7023.364263 237.853755 L 7033.627914 237.853755 L 7033.627914 122.354141 L 7023.364263 122.354141 L 7023.364263 102.363501 L 7073.122845 102.363501 L 7073.122845 122.354141 L 7062.624404 122.354141 L 7062.624404 237.853755 L 7113.120896 237.853755 L 7113.120896 227.355314 L 7133.363096 227.355314 L 7133.363096 257.861165 Z M 7023.364263 257.861165 " stroke="#000000" stroke-width="2.08" stroke-opacity="1" stroke-miterlimit="2"/></g><g clip-path="url(#3c98d758d9)"><path fill="#ffd3e9" d="M 652.28125 56.371094 L 652.28125 47.230469 L 654.726562 47.230469 L 654.726562 24.820312 L 652.28125 24.820312 L 652.28125 15.625 L 668.34375 15.625 L 668.34375 24.820312 L 665.902344 24.820312 L 665.902344 30.582031 L 671.664062 24.820312 L 670.675781 24.820312 L 670.675781 15.625 L 690 15.625 L 690 24.820312 L 686.625 24.820312 L 675.5625 35.878906 L 686.914062 47.230469 L 690 47.230469 L 690 56.371094 L 670.675781 56.371094 L 670.675781 47.230469 L 671.78125 47.230469 L 667.820312 43.273438 L 665.960938 45.136719 L 665.960938 47.230469 L 668.402344 47.230469 L 668.402344 56.371094 Z M 667.414062 55.378906 L 667.414062 48.164062 L 664.910156 48.164062 L 664.910156 44.902344 L 667.820312 41.992188 L 673.992188 48.164062 L 671.664062 48.164062 L 671.664062 55.378906 L 688.953125 55.378906 L 688.953125 48.164062 L 686.507812 48.164062 L 674.226562 35.878906 L 686.273438 23.832031 L 689.007812 23.832031 L 689.007812 16.613281 L 671.664062 16.613281 L 671.664062 23.832031 L 673.992188 23.832031 L 664.910156 32.910156 L 664.910156 23.832031 L 667.355469 23.832031 L 667.355469 16.613281 L 653.269531 16.613281 L 653.269531 23.832031 L 655.65625 23.832031 L 655.65625 48.164062 L 653.269531 48.164062 L 653.269531 55.378906 Z M 654.550781 54.101562 L 654.550781 49.441406 L 656.9375 49.441406 L 656.9375 22.550781 L 654.550781 22.550781 L 654.550781 17.894531 L 666.132812 17.894531 L 666.132812 22.550781 L 663.6875 22.550781 L 663.6875 36.054688 L 677.191406 22.550781 L 672.886719 22.550781 L 672.886719 17.894531 L 687.730469 17.894531 L 687.730469 22.550781 L 685.285156 22.550781 L 671.839844 35.996094 L 685.285156 49.441406 L 687.730469 49.441406 L 687.730469 54.101562 L 672.886719 54.101562 L 672.886719 49.441406 L 677.25 49.441406 L 667.878906 40.011719 L 663.6875 44.261719 L 663.6875 49.441406 L 666.191406 49.441406 L 666.191406 54.101562 Z M 654.550781 54.101562 " fill-opacity="1" fill-rule="nonzero"/></g><g clip-path="url(#23f5b85d4e)"><path stroke-linecap="butt" transform="matrix(0.232834, 0, 0, 0.232834, -856.76394, -30.917179)" fill="none" stroke-linejoin="round" d="M 6481.205089 374.894803 L 6481.205089 335.636691 L 6491.707473 335.636691 L 6491.707473 239.387208 L 6481.205089 239.387208 L 6481.205089 199.894219 L 6550.191994 199.894219 L 6550.191994 239.387208 L 6539.706387 239.387208 L 6539.706387 264.133241 L 6564.452419 239.387208 L 6560.207846 239.387208 L 6560.207846 199.894219 L 6643.203521 199.894219 L 6643.203521 239.387208 L 6628.708218 239.387208 L 6581.195837 286.882813 L 6629.949714 335.636691 L 6643.203521 335.636691 L 6643.203521 374.894803 L 6560.207846 374.894803 L 6560.207846 335.636691 L 6564.955729 335.636691 L 6547.94388 318.641619 L 6539.958042 326.644234 L 6539.958042 335.636691 L 6550.443649 335.636691 L 6550.443649 374.894803 Z M 6546.199075 370.633452 L 6546.199075 339.646387 L 6535.445037 339.646387 L 6535.445037 325.637616 L 6547.94388 313.138773 L 6574.451494 339.646387 L 6564.452419 339.646387 L 6564.452419 370.633452 L 6638.707293 370.633452 L 6638.707293 339.646387 L 6628.204909 339.646387 L 6575.458112 286.882813 L 6627.198291 235.142635 L 6638.942171 235.142635 L 6638.942171 204.138792 L 6564.452419 204.138792 L 6564.452419 235.142635 L 6574.451494 235.142635 L 6535.445037 274.132315 L 6535.445037 235.142635 L 6545.94742 235.142635 L 6545.94742 204.138792 L 6485.449663 204.138792 L 6485.449663 235.142635 L 6495.700392 235.142635 L 6495.700392 339.646387 L 6485.449663 339.646387 L 6485.449663 370.633452 Z M 6490.95251 365.147383 L 6490.95251 345.132456 L 6501.203239 345.132456 L 6501.203239 229.639788 L 6490.95251 229.639788 L 6490.95251 209.641639 L 6540.696229 209.641639 L 6540.696229 229.639788 L 6530.193845 229.639788 L 6530.193845 287.637777 L 6588.191833 229.639788 L 6569.703611 229.639788 L 6569.703611 209.641639 L 6633.456101 209.641639 L 6633.456101 229.639788 L 6622.953717 229.639788 L 6565.207383 287.386122 L 6622.953717 345.132456 L 6633.456101 345.132456 L 6633.456101 365.147383 L 6569.703611 365.147383 L 6569.703611 345.132456 L 6588.443488 345.132456 L 6548.195535 304.632849 L 6530.193845 322.886193 L 6530.193845 345.132456 L 6540.947883 345.132456 L 6540.947883 365.147383 Z M 6490.95251 365.147383 " stroke="#000000" stroke-width="2.08" stroke-opacity="1" stroke-miterlimit="2"/></g><g clip-path="url(#c543633e5a)"><path stroke-linecap="butt" transform="matrix(0.232643, 0, 0, 0.232643, 364.904985, -21.867858)" fill-opacity="1" fill="#ffd3e9" fill-rule="nonzero" stroke-linejoin="round" d="M 768.551189 336.220661 L 768.551189 296.963911 L 779.045401 296.963911 L 779.045401 200.71939 L 768.551189 200.71939 L 768.551189 161.210779 L 876.801089 161.210779 L 904.808044 189.217733 L 904.808044 234.216916 L 893.306387 245.718573 L 904.808044 257.22023 L 904.808044 308.213707 L 876.801089 336.220661 Z M 875.054852 331.972604 L 900.543196 306.46747 L 900.543196 258.966467 L 887.547163 245.970434 L 900.543196 232.974401 L 900.543196 190.96397 L 875.054852 165.475627 L 772.799246 165.475627 L 772.799246 196.471333 L 783.058388 196.471333 L 783.058388 300.960107 L 772.799246 300.960107 L 772.799246 331.972604 Z M 778.306609 326.465241 L 778.306609 306.46747 L 788.54896 306.46747 L 788.54896 190.96397 L 778.306609 190.96397 L 778.306609 170.966198 L 872.04931 170.966198 L 895.052624 193.969512 L 895.052624 229.716998 L 879.30291 245.466712 L 895.052624 261.216426 L 895.052624 303.461928 L 872.04931 326.465241 Z M 855.544013 306.46747 L 866.306877 295.721397 L 866.306877 266.471927 L 855.544013 255.725854 L 817.546568 255.725854 L 817.546568 306.46747 Z M 855.544013 235.711292 L 866.306877 224.965218 L 866.306877 201.710043 L 855.544013 190.96397 L 817.546568 190.96397 L 817.546568 235.711292 Z M 822.80207 300.960107 L 822.80207 260.964565 L 852.051539 260.964565 L 861.051375 269.964401 L 861.051375 291.960271 L 852.051539 300.960107 Z M 822.80207 230.22072 L 822.80207 196.471333 L 852.051539 196.471333 L 861.051375 205.471169 L 861.051375 221.220883 L 852.051539 230.22072 Z M 851.044094 225.972663 L 856.803318 220.213439 L 856.803318 206.461823 L 851.044094 200.71939 L 827.050127 200.71939 L 827.050127 225.972663 Z M 851.044094 296.963911 L 856.803318 291.221478 L 856.803318 270.971846 L 851.044094 265.212622 L 827.050127 265.212622 L 827.050127 296.963911 Z M 851.044094 296.963911 " stroke="#000000" stroke-width="2.08" stroke-opacity="1" stroke-miterlimit="2"/></g><g clip-path="url(#eaad1a126d)"><path stroke-linecap="butt" transform="matrix(0.232808, 0, 0, 0.232808, -1482.630874, -7.101278)" fill-opacity="1" fill="#ffd3e9" fill-rule="nonzero" stroke-linejoin="round" d="M 8861.385385 244.601219 L 8861.385385 125.605438 L 8889.372548 97.601495 L 8966.387585 97.601495 L 8994.374748 125.605438 L 8994.374748 244.601219 L 8966.387585 272.605162 L 8889.372548 272.605162 Z M 8890.882647 268.091644 L 8965.129169 268.091644 L 8990.129693 243.09112 L 8990.129693 127.350441 L 8964.625803 101.846551 L 8890.882647 101.846551 L 8865.882123 126.847074 L 8865.882123 243.09112 Z M 8871.133911 239.852798 L 8871.133911 130.353859 L 8894.137749 107.350022 L 8961.874067 107.350022 L 8984.877905 130.353859 L 8984.877905 239.852798 L 8961.874067 262.839856 L 8894.137749 262.839856 Z M 8910.631383 242.856216 L 8945.12875 242.856216 L 8955.884009 232.100957 L 8955.884009 138.340604 L 8944.877067 127.350441 L 8910.631383 127.350441 L 8899.876124 138.105699 L 8899.876124 232.100957 Z M 8905.127912 228.845856 L 8905.127912 141.344022 L 8913.886485 132.602228 L 8941.873648 132.602228 L 8950.632221 141.344022 L 8950.632221 228.845856 L 8941.873648 237.604428 L 8913.886485 237.604428 Z M 8915.128122 233.342594 L 8940.632012 233.342594 L 8946.135483 227.855902 L 8946.135483 142.602438 L 8940.632012 137.098967 L 8914.876438 137.098967 L 8909.372967 142.602438 L 8909.372967 227.604219 Z M 8915.128122 233.342594 " stroke="#000000" stroke-width="2.08" stroke-opacity="1" stroke-miterlimit="2"/></g><g clip-path="url(#de34f1219f)"><path stroke-linecap="butt" transform="matrix(0.232808, 0, 0, 0.232808, -1446.676236, -7.101278)" fill-opacity="1" fill="#ffd3e9" fill-rule="nonzero" stroke-linejoin="round" d="M 8861.378884 244.601219 L 8861.378884 125.605438 L 8889.382826 97.601495 L 8966.381084 97.601495 L 8994.385026 125.605438 L 8994.385026 244.601219 L 8966.381084 272.605162 L 8889.382826 272.605162 Z M 8890.876146 268.091644 L 8965.122668 268.091644 L 8990.123192 243.09112 L 8990.123192 127.350441 L 8964.636081 101.846551 L 8890.876146 101.846551 L 8865.875622 126.847074 L 8865.875622 243.09112 Z M 8871.12741 239.852798 L 8871.12741 130.353859 L 8894.131248 107.350022 L 8961.884345 107.350022 L 8984.888183 130.353859 L 8984.888183 239.852798 L 8961.884345 262.839856 L 8894.131248 262.839856 Z M 8910.624882 242.856216 L 8945.122249 242.856216 L 8955.877508 232.100957 L 8955.877508 138.340604 L 8944.887345 127.350441 L 8910.624882 127.350441 L 8899.886402 138.105699 L 8899.886402 232.100957 Z M 8905.13819 228.845856 L 8905.13819 141.344022 L 8913.879984 132.602228 L 8941.883926 132.602228 L 8950.62572 141.344022 L 8950.62572 228.845856 L 8941.883926 237.604428 L 8913.879984 237.604428 Z M 8915.12162 233.342594 L 8940.625511 233.342594 L 8946.128982 227.855902 L 8946.128982 142.602438 L 8940.625511 137.098967 L 8914.886716 137.098967 L 8909.383245 142.602438 L 8909.383245 227.604219 Z M 8915.12162 233.342594 " stroke="#000000" stroke-width="2.08" stroke-opacity="1" stroke-miterlimit="2"/></g><g clip-path="url(#9043fa6989)"><path fill="#ffd3e9" d="M 465.023438 49.84375 L 465.023438 22.140625 L 471.542969 15.621094 L 489.46875 15.621094 L 495.988281 22.140625 L 495.988281 49.84375 L 489.46875 56.363281 L 471.542969 56.363281 Z M 471.890625 55.3125 L 489.179688 55.3125 L 495 49.492188 L 495 22.546875 L 489.0625 16.609375 L 471.890625 16.609375 L 466.070312 22.429688 L 466.070312 49.492188 Z M 467.292969 48.738281 L 467.292969 23.246094 L 472.648438 17.890625 L 488.421875 17.890625 L 493.777344 23.246094 L 493.777344 48.738281 L 488.421875 54.089844 L 472.648438 54.089844 Z M 476.492188 49.4375 L 484.523438 49.4375 L 487.023438 46.933594 L 487.023438 25.105469 L 484.464844 22.546875 L 476.492188 22.546875 L 473.988281 25.050781 L 473.988281 46.933594 Z M 475.210938 46.175781 L 475.210938 25.804688 L 477.246094 23.769531 L 483.765625 23.769531 L 485.800781 25.804688 L 485.800781 46.175781 L 483.765625 48.214844 L 477.246094 48.214844 Z M 477.539062 47.222656 L 483.472656 47.222656 L 484.753906 45.945312 L 484.753906 26.097656 L 483.472656 24.816406 L 477.480469 24.816406 L 476.199219 26.097656 L 476.199219 45.886719 Z M 477.539062 47.222656 " fill-opacity="1" fill-rule="nonzero"/></g><g clip-path="url(#dc9b3e5fc2)"><path stroke-linecap="butt" transform="matrix(0.232808, 0, 0, 0.232808, -1597.972205, -7.101278)" fill="none" stroke-linejoin="round" d="M 8861.374995 244.601219 L 8861.374995 125.605438 L 8889.378938 97.601495 L 8966.377195 97.601495 L 8994.381137 125.605438 L 8994.381137 244.601219 L 8966.377195 272.605162 L 8889.378938 272.605162 Z M 8890.872257 268.091644 L 8965.135558 268.091644 L 8990.136082 243.09112 L 8990.136082 127.350441 L 8964.632192 101.846551 L 8890.872257 101.846551 L 8865.871734 126.847074 L 8865.871734 243.09112 Z M 8871.123522 239.852798 L 8871.123522 130.353859 L 8894.127359 107.350022 L 8961.880457 107.350022 L 8984.884294 130.353859 L 8984.884294 239.852798 L 8961.880457 262.839856 L 8894.127359 262.839856 Z M 8910.637772 242.856216 L 8945.135139 242.856216 L 8955.873619 232.100957 L 8955.873619 138.340604 L 8944.883456 127.350441 L 8910.637772 127.350441 L 8899.882513 138.105699 L 8899.882513 232.100957 Z M 8905.134301 228.845856 L 8905.134301 141.344022 L 8913.876095 132.602228 L 8941.880037 132.602228 L 8950.621831 141.344022 L 8950.621831 228.845856 L 8941.880037 237.604428 L 8913.876095 237.604428 Z M 8915.134511 233.342594 L 8940.621622 233.342594 L 8946.125093 227.855902 L 8946.125093 142.602438 L 8940.621622 137.098967 L 8914.882828 137.098967 L 8909.379357 142.602438 L 8909.379357 227.604219 Z M 8915.134511 233.342594 " stroke="#000000" stroke-width="2.08" stroke-opacity="1" stroke-miterlimit="2"/></g><g clip-path="url(#edd1179e4e)"><path stroke-linecap="butt" transform="matrix(0.232834, 0, 0, 0.232834, -1008.059958, -30.917179)" fill-opacity="1" fill="#ffd3e9" fill-rule="nonzero" stroke-linejoin="round" d="M 6481.201407 374.894803 L 6481.201407 335.636691 L 6491.703791 335.636691 L 6491.703791 239.387208 L 6481.201407 239.387208 L 6481.201407 199.894219 L 6550.205089 199.894219 L 6550.205089 239.387208 L 6539.702705 239.387208 L 6539.702705 264.133241 L 6564.448737 239.387208 L 6560.204164 239.387208 L 6560.204164 199.894219 L 6643.199839 199.894219 L 6643.199839 239.387208 L 6628.704536 239.387208 L 6581.192154 286.882813 L 6629.946032 335.636691 L 6643.199839 335.636691 L 6643.199839 374.894803 L 6560.204164 374.894803 L 6560.204164 335.636691 L 6564.952047 335.636691 L 6547.956975 318.641619 L 6539.95436 326.644234 L 6539.95436 335.636691 L 6550.456744 335.636691 L 6550.456744 374.894803 Z M 6546.195393 370.633452 L 6546.195393 339.646387 L 6535.458132 339.646387 L 6535.458132 325.637616 L 6547.956975 313.138773 L 6574.447812 339.646387 L 6564.448737 339.646387 L 6564.448737 370.633452 L 6638.703611 370.633452 L 6638.703611 339.646387 L 6628.201227 339.646387 L 6575.45443 286.882813 L 6627.194609 235.142635 L 6638.955266 235.142635 L 6638.955266 204.138792 L 6564.448737 204.138792 L 6564.448737 235.142635 L 6574.447812 235.142635 L 6535.458132 274.132315 L 6535.458132 235.142635 L 6545.943738 235.142635 L 6545.943738 204.138792 L 6485.445981 204.138792 L 6485.445981 235.142635 L 6495.69671 235.142635 L 6495.69671 339.646387 L 6485.445981 339.646387 L 6485.445981 370.633452 Z M 6490.948828 365.147383 L 6490.948828 345.132456 L 6501.199557 345.132456 L 6501.199557 229.639788 L 6490.948828 229.639788 L 6490.948828 209.641639 L 6540.692546 209.641639 L 6540.692546 229.639788 L 6530.20694 229.639788 L 6530.20694 287.637777 L 6588.204928 229.639788 L 6569.699929 229.639788 L 6569.699929 209.641639 L 6633.452419 209.641639 L 6633.452419 229.639788 L 6622.950035 229.639788 L 6565.203701 287.386122 L 6622.950035 345.132456 L 6633.452419 345.132456 L 6633.452419 365.147383 L 6569.699929 365.147383 L 6569.699929 345.132456 L 6588.456583 345.132456 L 6548.191853 304.632849 L 6530.20694 322.886193 L 6530.20694 345.132456 L 6540.944201 345.132456 L 6540.944201 365.147383 Z M 6490.948828 365.147383 " stroke="#000000" stroke-width="2.08" stroke-opacity="1" stroke-miterlimit="2"/></g></svg>